<mxfile host="app.diagrams.net" modified="2021-06-07T04:42:51.141Z" agent="5.0 (Windows NT 10.0; Win64; x64) AppleWebKit/537.36 (KHTML, like Gecko) Chrome/86.0.4240.198 Safari/537.36" etag="e8eYUJJTVU-YZ34J6F0H" version="14.7.6" type="github">
  <diagram id="RY25XYFdCaw41QkdgXHt" name="第 1 页">
    <mxGraphModel dx="1221" dy="645" grid="0" gridSize="10" guides="1" tooltips="1" connect="1" arrows="1" fold="1" page="0" pageScale="1" pageWidth="827" pageHeight="1169" background="none" math="0" shadow="1">
      <root>
        <mxCell id="0" />
        <mxCell id="1" parent="0" />
        <mxCell id="slaa_W6nDFlpM1A8y8Z6-10" style="edgeStyle=orthogonalEdgeStyle;rounded=0;orthogonalLoop=1;jettySize=auto;html=1;exitX=0.5;exitY=1;exitDx=0;exitDy=0;entryX=0.5;entryY=0;entryDx=0;entryDy=0;" edge="1" parent="1" source="slaa_W6nDFlpM1A8y8Z6-1" target="slaa_W6nDFlpM1A8y8Z6-3">
          <mxGeometry relative="1" as="geometry" />
        </mxCell>
        <mxCell id="slaa_W6nDFlpM1A8y8Z6-1" value="&lt;font style=&quot;font-size: 18px&quot;&gt;&lt;b&gt;开始&lt;/b&gt;&lt;/font&gt;" style="rounded=1;whiteSpace=wrap;html=1;" vertex="1" parent="1">
          <mxGeometry x="280" y="70" width="120" height="60" as="geometry" />
        </mxCell>
        <mxCell id="slaa_W6nDFlpM1A8y8Z6-12" style="edgeStyle=orthogonalEdgeStyle;rounded=0;orthogonalLoop=1;jettySize=auto;html=1;exitX=0.5;exitY=1;exitDx=0;exitDy=0;entryX=0.5;entryY=0;entryDx=0;entryDy=0;" edge="1" parent="1" source="slaa_W6nDFlpM1A8y8Z6-2" target="slaa_W6nDFlpM1A8y8Z6-4">
          <mxGeometry relative="1" as="geometry" />
        </mxCell>
        <mxCell id="slaa_W6nDFlpM1A8y8Z6-2" value="&lt;font style=&quot;font-size: 18px&quot;&gt;&lt;b&gt;计算剩余样本点到聚类质心的距离，&lt;br&gt;并将其分配到距离最近的簇内&lt;/b&gt;&lt;/font&gt;" style="rounded=0;whiteSpace=wrap;html=1;align=center;" vertex="1" parent="1">
          <mxGeometry x="190" y="310" width="300" height="90" as="geometry" />
        </mxCell>
        <mxCell id="slaa_W6nDFlpM1A8y8Z6-11" style="edgeStyle=orthogonalEdgeStyle;rounded=0;orthogonalLoop=1;jettySize=auto;html=1;exitX=0.5;exitY=1;exitDx=0;exitDy=0;entryX=0.5;entryY=0;entryDx=0;entryDy=0;" edge="1" parent="1" source="slaa_W6nDFlpM1A8y8Z6-3" target="slaa_W6nDFlpM1A8y8Z6-2">
          <mxGeometry relative="1" as="geometry" />
        </mxCell>
        <mxCell id="slaa_W6nDFlpM1A8y8Z6-3" value="&lt;font style=&quot;font-size: 18px&quot;&gt;&lt;b&gt;在数据集中随机选取k个&lt;br&gt;作为初始聚类质心&lt;/b&gt;&lt;/font&gt;" style="rounded=0;whiteSpace=wrap;html=1;" vertex="1" parent="1">
          <mxGeometry x="220" y="180" width="240" height="80" as="geometry" />
        </mxCell>
        <mxCell id="slaa_W6nDFlpM1A8y8Z6-13" style="edgeStyle=orthogonalEdgeStyle;rounded=0;orthogonalLoop=1;jettySize=auto;html=1;exitX=0.5;exitY=1;exitDx=0;exitDy=0;entryX=0.5;entryY=0;entryDx=0;entryDy=0;startArrow=none;" edge="1" parent="1" source="slaa_W6nDFlpM1A8y8Z6-17" target="slaa_W6nDFlpM1A8y8Z6-9">
          <mxGeometry relative="1" as="geometry" />
        </mxCell>
        <mxCell id="slaa_W6nDFlpM1A8y8Z6-14" style="edgeStyle=orthogonalEdgeStyle;rounded=0;orthogonalLoop=1;jettySize=auto;html=1;exitX=1;exitY=0.5;exitDx=0;exitDy=0;entryX=0;entryY=0.5;entryDx=0;entryDy=0;" edge="1" parent="1" source="slaa_W6nDFlpM1A8y8Z6-4" target="slaa_W6nDFlpM1A8y8Z6-7">
          <mxGeometry relative="1" as="geometry" />
        </mxCell>
        <mxCell id="slaa_W6nDFlpM1A8y8Z6-4" value="&lt;font style=&quot;font-size: 18px&quot;&gt;&lt;b&gt;样本所属的簇未改变&lt;/b&gt;&lt;/font&gt;" style="rhombus;whiteSpace=wrap;html=1;" vertex="1" parent="1">
          <mxGeometry x="225" y="440" width="230" height="100" as="geometry" />
        </mxCell>
        <mxCell id="slaa_W6nDFlpM1A8y8Z6-15" style="edgeStyle=orthogonalEdgeStyle;rounded=0;orthogonalLoop=1;jettySize=auto;html=1;exitX=0.5;exitY=0;exitDx=0;exitDy=0;entryX=1;entryY=0.5;entryDx=0;entryDy=0;" edge="1" parent="1" source="slaa_W6nDFlpM1A8y8Z6-7" target="slaa_W6nDFlpM1A8y8Z6-2">
          <mxGeometry relative="1" as="geometry" />
        </mxCell>
        <mxCell id="slaa_W6nDFlpM1A8y8Z6-7" value="&lt;font style=&quot;font-size: 18px&quot;&gt;&lt;b&gt;更新簇内质心&lt;/b&gt;&lt;/font&gt;" style="rounded=0;whiteSpace=wrap;html=1;" vertex="1" parent="1">
          <mxGeometry x="590" y="460" width="130" height="60" as="geometry" />
        </mxCell>
        <mxCell id="slaa_W6nDFlpM1A8y8Z6-9" value="&lt;font style=&quot;font-size: 18px&quot;&gt;&lt;b&gt;结束&lt;/b&gt;&lt;/font&gt;" style="rounded=1;whiteSpace=wrap;html=1;" vertex="1" parent="1">
          <mxGeometry x="280" y="610" width="120" height="60" as="geometry" />
        </mxCell>
        <mxCell id="slaa_W6nDFlpM1A8y8Z6-16" value="&lt;span style=&quot;color: rgb(0 , 0 , 0) ; font-family: &amp;#34;helvetica&amp;#34; ; font-size: 18px ; font-style: normal ; font-weight: 400 ; letter-spacing: normal ; text-indent: 0px ; text-transform: none ; word-spacing: 0px ; background-color: rgb(255 , 255 , 255) ; display: inline ; float: none&quot;&gt;N&lt;/span&gt;" style="text;whiteSpace=wrap;html=1;align=center;" vertex="1" parent="1">
          <mxGeometry x="480" y="475" width="60" height="30" as="geometry" />
        </mxCell>
        <mxCell id="slaa_W6nDFlpM1A8y8Z6-17" value="&lt;span style=&quot;color: rgb(0 , 0 , 0) ; font-family: &amp;#34;helvetica&amp;#34; ; font-size: 18px ; font-style: normal ; font-weight: 400 ; letter-spacing: normal ; text-indent: 0px ; text-transform: none ; word-spacing: 0px ; background-color: rgb(255 , 255 , 255) ; display: inline ; float: none&quot;&gt;Y&lt;/span&gt;" style="text;whiteSpace=wrap;html=1;align=center;" vertex="1" parent="1">
          <mxGeometry x="310" y="560" width="60" height="30" as="geometry" />
        </mxCell>
        <mxCell id="slaa_W6nDFlpM1A8y8Z6-18" value="" style="edgeStyle=orthogonalEdgeStyle;rounded=0;orthogonalLoop=1;jettySize=auto;html=1;exitX=0.5;exitY=1;exitDx=0;exitDy=0;entryX=0.5;entryY=0;entryDx=0;entryDy=0;endArrow=none;" edge="1" parent="1" source="slaa_W6nDFlpM1A8y8Z6-4" target="slaa_W6nDFlpM1A8y8Z6-17">
          <mxGeometry relative="1" as="geometry">
            <mxPoint x="340" y="540" as="sourcePoint" />
            <mxPoint x="340" y="610" as="targetPoint" />
          </mxGeometry>
        </mxCell>
      </root>
    </mxGraphModel>
  </diagram>
</mxfile>
